<?xml version="1.0" encoding="UTF-8" standalone="no"?>
<!-- Created with Inkscape (http://www.inkscape.org/) -->

<svg
   width="64"
   height="64"
   viewBox="0 0 16.933333 16.933333"
   version="1.1"
   id="svg5"
   xml:space="preserve"
   inkscape:version="1.2.2 (732a01da63, 2022-12-09, custom)"
   sodipodi:docname="eye_close.svg"
   xmlns:inkscape="http://www.inkscape.org/namespaces/inkscape"
   xmlns:sodipodi="http://sodipodi.sourceforge.net/DTD/sodipodi-0.dtd"
   xmlns="http://www.w3.org/2000/svg"
   xmlns:svg="http://www.w3.org/2000/svg"><sodipodi:namedview
     id="namedview7"
     pagecolor="#ffffff"
     bordercolor="#000000"
     borderopacity="0.25"
     inkscape:showpageshadow="2"
     inkscape:pageopacity="0.0"
     inkscape:pagecheckerboard="0"
     inkscape:deskcolor="#d1d1d1"
     inkscape:document-units="mm"
     showgrid="false"
     inkscape:zoom="0.70180348"
     inkscape:cx="-485.17856"
     inkscape:cy="87.63137"
     inkscape:window-width="1846"
     inkscape:window-height="1016"
     inkscape:window-x="0"
     inkscape:window-y="0"
     inkscape:window-maximized="1"
     inkscape:current-layer="layer1" /><defs
     id="defs2" /><g
     inkscape:label="Layer 1"
     inkscape:groupmode="layer"
     id="layer1"><path
       style="fill:none;stroke:#000000;stroke-width:0.39700003;stroke-linecap:square;stroke-opacity:1;paint-order:fill markers stroke;stroke-dasharray:none"
       d="M 1.5875,8.4666667 C 1.5875,7.4381516 2.5113944,6.6066265 3.175,5.8208333 3.6996263,5.1996092 4.3149032,4.6256999 5.0270833,4.2333333 6.0777531,3.65448 7.2670925,3.175 8.4666667,3.175 c 1.1995741,0 2.3889133,0.47948 3.4395833,1.0583333 0.71218,0.3923666 1.327457,0.966276 1.852083,1.5875 0.663606,0.7857932 1.5875,1.6173183 1.5875,2.6458334 0,1.0285151 -0.923894,1.8600403 -1.5875,2.6458333 C 13.233707,11.733724 12.61843,12.307633 11.90625,12.7 10.85558,13.278853 9.6662408,13.758333 8.4666667,13.758333 7.2670926,13.758333 6.0777531,13.278853 5.0270833,12.7 4.3149032,12.307633 3.6996263,11.733724 3.175,11.1125 2.5113944,10.326707 1.5875,9.4951818 1.5875,8.4666667 Z"
       id="path5645"
       sodipodi:nodetypes="sssssssssssss" /><circle
       style="fill:none;stroke:#000000;stroke-width:0.396875;stroke-linecap:square;stroke-dasharray:none;stroke-opacity:1;paint-order:fill markers stroke"
       id="path30212"
       cx="8.4666662"
       cy="8.4666662"
       r="2.976099" /><rect
       style="fill:#000000;fill-opacity:1;stroke:#000000;stroke-width:0.191175;stroke-linecap:square;stroke-dasharray:none;paint-order:fill markers stroke"
       id="rect7606"
       width="0.20570001"
       height="15.683825"
       x="0.24642186"
       y="4.0799665"
       rx="0.0063887294"
       ry="0"
       transform="rotate(-43.097213)" /></g></svg>
