<svg
  width="32"
  height="32"
  viewBox="0 0 8.4666665 8.4666666"
  version="1.1"
  xml:space="preserve"
  xmlns:sodipodi="http://sodipodi.sourceforge.net/DTD/sodipodi-0.dtd"
  xmlns="http://www.w3.org/2000/svg"
  xmlns:svg="http://www.w3.org/2000/svg">
  <path
    style="fill:#000000;stroke-width:0.903415;paint-order:stroke fill markers"
    d="M 0.52916873,5.5622048 1.6191827,6.0650892 3.0725349,4.7233651 c 0,0 0.4617616,0.5881397 0.7266758,0.8388397 0.3377018,0.3195811 1.090014,0.8388397 1.090014,0.8388397 l 0.2548394,-0.629199 c 0,0 -0.1475848,-0.5402566 -0.4365082,-0.8387704 -0.25525,-0.2637226 -0.7266757,-0.8388397 -0.7266757,-0.8388397 0,0 0.6661444,-0.7893169 0.9083445,-1.2582596 C 5.0562224,2.51264 5.2525629,1.7874263 5.2525629,1.7874263 H 5.6026816 L 5.6158991,0.94858656 H 3.6175399 V 0.52916667 H 2.3458571 V 0.94858656 H 0.52916667 V 1.7874263 H 4.1625469 c 0,0 -0.2049893,0.5852315 -0.3633382,0.8388396 -0.2002969,0.3207919 -0.7266758,0.8388397 -0.7266758,0.8388397 0,0 -0.2502144,-0.291502 -0.3633382,-0.4494084 C 2.5783738,2.8330877 2.3458571,2.4417212 2.3458571,2.4417212 l -1.090014,0.1845447 c 0,0 0.2049886,0.5852316 0.3633376,0.8388397 0.1502235,0.2405938 0.545007,0.6291298 0.545007,0.6291298 0,0 -0.6383383,0.5954854 -0.9083446,0.8388396 C 0.97752669,5.1839188 0.52916667,5.5622048 0.52916667,5.5622048 Z"
    sodipodi:nodetypes="cccsccscsccccccccccscsccscscc" />
  <path
    style="fill:#000000;stroke-width:0.824534;paint-order:stroke fill markers"
    d="M 5.7574718,7.0387432 H 6.5360535 L 6.8474858,7.9375 H 7.9375 L 6.5360535,3.4334979 H 5.7574718 V 4.3322875 L 6.3803371,5.9602351 H 5.7574718 Z"
    sodipodi:nodetypes="cccccccccc" />
  <path
    style="fill:#000000;stroke-width:0.830252;paint-order:stroke fill markers"
    d="m 5.7574718,7.0387432 h -0.778581 l -0.311433,0.8987539 -1.090014,2.9e-6 1.401447,-4.5040021 h 0.778581 V 4.3322875 L 5.1346066,5.9602351 h 0.6228652 z"
    sodipodi:nodetypes="cccccccccc" />
</svg>