<svg
  width="64"
  height="64"
  viewBox="0 0 16.933333 16.933333"
  version="1.1"
  xml:space="preserve"
  xmlns:sodipodi="http://sodipodi.sourceforge.net/DTD/sodipodi-0.dtd"
  xmlns="http://www.w3.org/2000/svg"
  xmlns:svg="http://www.w3.org/2000/svg">
  <path
    style="fill:#FFFFFF;stroke-width:0.396768"
    d="m 5.8318193,1.0583333 c 0,0 -2.3748462,1.5208713 -3.171531,2.6429424 -0.8715314,1.2274871 -1.4644285,2.728185 -1.5857654,4.2287078 -0.072413,0.8955046 0.1048689,1.7931438 0.3964414,2.6429425 0.383589,1.117984 1.146435,2.071465 1.9822068,2.907236 0.8357718,0.835772 1.7892526,1.598618 2.9072367,1.982207 0.8497986,0.291572 1.7474377,0.468854 2.6429424,0.396442 1.5005228,-0.121338 3.0012208,-0.714234 4.2287078,-1.585766 1.122071,-0.796684 2.642942,-3.171531 2.642942,-3.171531 0,0 -2.468263,0.371533 -3.70012,0.264294 -0.723738,-0.063 -1.470613,-0.19189 -2.114353,-0.528588 C 9.2306856,10.403185 8.4762284,9.7815099 7.8140261,9.1193076 7.1518238,8.4571053 6.5301487,7.7026482 6.0961136,6.8728066 5.7594159,6.2290666 5.6305297,5.4821908 5.567525,4.7584527 5.4602863,3.5265962 5.8318193,1.0583333 5.8318193,1.0583333 Z"
    sodipodi:nodetypes="cssssssscsssssc" />
</svg>